<?xml version="1.0" encoding="UTF-8"?>
<svg id="Layer_2" data-name="Layer 2" xmlns="http://www.w3.org/2000/svg" viewBox="0 0 26.7 34.83">
  <g id="Layer_2-2" data-name="Layer 2">
    <g>
      <path d="m25.67,14.85c1.54,8.25-3.52,18.44-10.52,19.19-6.88.73-13.47-7.88-14.3-15.74C.12,11.48,3.42,2.3,9.99.92c6.86-1.44,14.26,6.29,15.68,13.92Z" fill="#c5fff4" stroke="blue" stroke-miterlimit="10" stroke-width="1.5"/>
      <path d="m12.31,15.69h8.73c.24,0,.44.2.44.44v2.41c0,.24-.19.44-.44.44h-8.73v2.03c0,.34-.36.55-.66.38l-6.22-3.59c-.29-.17-.29-.59,0-.76l6.22-3.6c.29-.17.66.04.66.38v1.87Z" fill="#1ac0e9"/>
    </g>
  </g>
</svg>