<?xml version="1.0" encoding="UTF-8"?>
<svg id="Layer_2" data-name="Layer 2" xmlns="http://www.w3.org/2000/svg" viewBox="0 0 76.69 69.4">
  <g id="Layer_2-2" data-name="Layer 2">
    <path d="m75.94,51.97c.02,1.53-.08,8.15-4.79,12.21-3.39,2.92-7.58,3.01-12.21,3.05-10.46.1-11.2-3.38-19.19-3.35-9.74.05-11.18,5.23-22,4.74-3.63-.17-8.27-.43-11.98-3.79C.83,60.37.74,53.58.75,52.4c.05-9.77,8.25-10.76,16.02-25.55,5.37-10.23,4.56-15.68,11.61-21.58C33.71.81,37.98.74,38.89.75c5.67.04,9.71,3.98,11.88,6.16,6.04,6.05,5.11,10.27,9.78,19.63,7.32,14.66,15.25,15.68,15.39,25.43Z" fill="#c5fff4" stroke="blue" stroke-miterlimit="10" stroke-width="1.5"/>
  </g>
</svg>