<?xml version="1.0" encoding="UTF-8"?>
<svg id="Layer_2" data-name="Layer 2" xmlns="http://www.w3.org/2000/svg" viewBox="0 0 113.4 113.72">
  <g id="Layer_2-2" data-name="Layer 2">
    <path d="m93.37,96.28c.02,1.53-.08,8.15-4.79,12.21-3.39,2.92-7.58,3.01-12.21,3.05-10.46.1-11.2-3.38-19.19-3.35-9.74.05-11.18,5.23-22,4.74-3.63-.17-8.27-.43-11.98-3.79-4.93-4.46-5.02-11.25-5.01-12.42.05-9.77,8.25-10.76,16.02-25.55,5.37-10.23,4.56-15.68,11.61-21.58,5.33-4.46,9.6-4.53,10.52-4.52,5.67.04,9.71,3.98,11.88,6.16,6.04,6.05,5.11,10.27,9.78,19.63,7.32,14.66,15.25,15.68,15.39,25.43Z" fill="#c5fff4" stroke="blue" stroke-miterlimit="10" stroke-width="1.5"/>
    <path d="m51.95,18.35c.44,7.74-4.65,17.35-11.67,17.77-6.79.41-12.6-7.94-13.96-14.7-1.72-8.57,2.71-19.55,9.65-20.59,7.06-1.05,15.46,8.36,15.98,17.52Z" fill="#c5fff4" stroke="blue" stroke-miterlimit="10" stroke-width="1.5"/>
    <path d="m86.49,19.98c-1.25,7.24-7.54,15.86-14.56,15.19-6.82-.65-11.41-9.81-10.98-17.08.54-9.21,9.33-18.49,16.38-17.23,6.55,1.17,10.52,11.23,9.16,19.12Z" fill="#c5fff4" stroke="blue" stroke-miterlimit="10" stroke-width="1.5"/>
    <g>
      <path d="m105.27,32.31c-6.31-2.12-13.3,4.14-16.17,9.61-3.72,7.09-3.1,17.79,2.5,20.89,6.17,3.41,17.52-2.85,20.3-11.9,2.08-6.76-.22-16.44-6.63-18.59Z" fill="#c5fff4" stroke="blue" stroke-miterlimit="10" stroke-width="1.5"/>
      <path d="m100.74,46.09h-8.73c-.24,0-.44.2-.44.44v2.41c0,.24.19.44.44.44h8.73v2.03c0,.34.36.55.66.38l6.22-3.59c.29-.17.29-.59,0-.76l-6.22-3.6c-.29-.17-.66.04-.66.38v1.87Z" fill="#1ac0e9"/>
    </g>
    <g>
      <path d="m25.67,45.25c1.54,8.25-3.52,18.44-10.52,19.19-6.88.73-13.47-7.88-14.3-15.74-.72-6.82,2.58-16,9.14-17.38,6.86-1.44,14.26,6.29,15.68,13.92Z" fill="#c5fff4" stroke="blue" stroke-miterlimit="10" stroke-width="1.5"/>
      <path d="m12.31,46.09h8.73c.24,0,.44.2.44.44v2.41c0,.24-.19.44-.44.44h-8.73v2.03c0,.34-.36.55-.66.38l-6.22-3.59c-.29-.17-.29-.59,0-.76l6.22-3.6c.29-.17.66.04.66.38v1.87Z" fill="#1ac0e9"/>
    </g>
  </g>
</svg>