<?xml version="1.0" encoding="UTF-8"?>
<svg id="Layer_2" data-name="Layer 2" xmlns="http://www.w3.org/2000/svg" viewBox="0 0 441.53 142.13">
  <g id="Layer_2-2" data-name="Layer 2">
    <rect x="1.5" y="1.5" width="65" height="65" rx="7.81" ry="7.81" fill="#c5fff4" stroke="blue" stroke-miterlimit="10" stroke-width="3"/>
    <rect x="1.5" y="75.63" width="65" height="65" rx="7.81" ry="7.81" fill="#c5fff4" stroke="blue" stroke-miterlimit="10" stroke-width="3"/>
    <rect x="76.23" y="1.5" width="65" height="65" rx="7.81" ry="7.81" fill="#c5fff4" stroke="blue" stroke-miterlimit="10" stroke-width="3"/>
    <rect x="76.23" y="75.63" width="65" height="65" rx="7.81" ry="7.81" fill="#c5fff4" stroke="blue" stroke-miterlimit="10" stroke-width="3"/>
    <rect x="150.89" y="1.5" width="65" height="65" rx="7.81" ry="7.81" fill="#c5fff4" stroke="blue" stroke-miterlimit="10" stroke-width="3"/>
    <rect x="150.89" y="75.63" width="65" height="65" rx="7.81" ry="7.81" fill="#c5fff4" stroke="blue" stroke-miterlimit="10" stroke-width="3"/>
    <rect x="225.61" y="1.5" width="65" height="65" rx="7.81" ry="7.81" fill="#c5fff4" stroke="blue" stroke-miterlimit="10" stroke-width="3"/>
    <rect x="225.61" y="75.63" width="65" height="65" rx="7.81" ry="7.81" fill="#c5fff4" stroke="blue" stroke-miterlimit="10" stroke-width="3"/>
    <rect x="300.31" y="1.5" width="65" height="65" rx="7.81" ry="7.81" fill="#c5fff4" stroke="blue" stroke-miterlimit="10" stroke-width="3"/>
    <rect x="300.31" y="75.63" width="65" height="65" rx="7.81" ry="7.81" fill="#c5fff4" stroke="blue" stroke-miterlimit="10" stroke-width="3"/>
    <rect x="375.03" y="1.5" width="65" height="65" rx="7.81" ry="7.81" fill="#c5fff4" stroke="blue" stroke-miterlimit="10" stroke-width="3"/>
    <rect x="375.03" y="75.63" width="65" height="65" rx="7.81" ry="7.81" fill="#c5fff4" stroke="blue" stroke-miterlimit="10" stroke-width="3"/>
  </g>
</svg>