<?xml version="1.0" encoding="UTF-8"?>
<svg id="Layer_2" data-name="Layer 2" xmlns="http://www.w3.org/2000/svg" viewBox="0 0 76.69 69.4">
  <g id="Layer_2-2" data-name="Layer 2">
    <path d="m75.94,51.97c.02,1.53-.08,8.15-4.79,12.21-3.39,2.92-7.58,3.01-12.21,3.05-10.46.1-11.2-3.38-19.19-3.35-9.74.05-11.18,5.23-22,4.74-3.63-.17-8.27-.43-11.98-3.79C.83,60.37.74,53.58.75,52.4c.05-9.77,8.25-10.76,16.02-25.55,5.37-10.23,4.56-15.68,11.61-21.58C33.71.81,37.98.74,38.89.75c5.67.04,9.71,3.98,11.88,6.16,6.04,6.05,5.11,10.27,9.78,19.63,7.32,14.66,15.25,15.68,15.39,25.43Z" fill="#c5fff4" stroke="blue" stroke-miterlimit="10" stroke-width="1.5"/>
  </g>
  <g id="Layer_7" data-name="Layer 7">
    <path d="m45.62,28.03c2.59-.93,5.7,4.08,6.69,10.54.98,6.37-.43,12.03-3.13,12.04.08.52.15,1.03.18,1.49.23.04.46.05.68.01,2.89-.45,4.33-6.67,3.21-13.9s-4.36-12.73-7.25-12.28c-.23.04-.45.12-.67.23.11.56.2,1.2.28,1.87Z" fill="#c69c6d" stroke="#000" stroke-miterlimit="10" stroke-width=".25"/>
    <path d="m29.27,28.03c-2.67-.94-5.85,4.06-6.84,10.52-.98,6.37.5,12.04,3.27,12.06-.08.52-.15,1.03-.18,1.49-.24.03-.47.05-.7.01-2.97-.46-4.48-6.69-3.37-13.92s4.43-12.72,7.41-12.26c.24.04.47.12.69.23-.11.56-.2,1.2-.28,1.87Z" fill="#c69c6d" stroke="#000" stroke-miterlimit="10" stroke-width=".25"/>
    <path d="m51.7,41.12c.03.22.34,2.19,0,4.35-.14.83-1.16,6.39-5.9,9.13-2.32,1.34-4.4,1.35-8.23,1.39-4.2.03-6.57.05-9.05-1.54-3.31-2.11-5-5.91-5.17-8.98-.08-1.5.23-2.99.48-4.48.54-3.19,1.13-4.18,1.5-7.1.38-3.05-.15-3.01.24-4.21,1.24-3.86,7.15-5.86,11.56-5.95,4.6-.1,10.65,1.82,11.81,5.47.42,1.32-.09,1.26.48,4.16.72,3.63,1.84,4.61,2.28,7.76Z" fill="#c69c6d" stroke="#000" stroke-miterlimit="10" stroke-width=".5"/>
    <path d="m47.91,36.85c0,7.57.73,13.7,1.62,13.7" fill="none" stroke="#000" stroke-miterlimit="10" stroke-width=".25"/>
    <path d="m27.07,36.85c0,7.89-.84,14.27-1.88,14.27" fill="none" stroke="#000" stroke-miterlimit="10" stroke-width=".25"/>
    <path d="m25.32,33.89c1.92,4.99,6.73,8.3,12.05,8.3,5.39,0,10.25-3.4,12.11-8.49" fill="none" stroke="#231f20" stroke-linecap="round" stroke-miterlimit="10" stroke-width=".5"/>
    <rect x="36.29" y="41.25" width="1.74" height="3.17" rx=".83" ry=".83" transform="translate(74.32 85.66) rotate(180)" fill="#a67c52" stroke="#000" stroke-miterlimit="10" stroke-width=".25"/>
    <path d="m38.31,39.02h-2.26c-.49,0-.89.51-.89,1.14v1.86c0,.62.4,1.14.89,1.14h2.26c.49,0,.89-.51.89-1.14v-1.86c0-.62-.4-1.14-.89-1.14Zm.11,2.86c0,.28-.18.51-.4.51h-1.69c-.22,0-.4-.23-.4-.51v-1.6c0-.28.18-.51.4-.51h1.69c.22,0,.4.23.4.51v1.6Z" fill="#b3b3b3" stroke="#231f20" stroke-linecap="round" stroke-miterlimit="10" stroke-width=".25"/>
    <rect x="36.18" y="23.47" width="1.96" height="18.47" rx=".62" ry=".62" fill="#a67c52" stroke="#000" stroke-miterlimit="10" stroke-width=".25"/>
    <rect x="36.92" y="40.54" width=".48" height="2.07" rx=".1" ry=".1" transform="translate(74.32 83.15) rotate(-180)" fill="#b3b3b3" stroke="#231f20" stroke-linecap="round" stroke-miterlimit="10" stroke-width=".25"/>
  </g>
</svg>