<?xml version="1.0" encoding="UTF-8"?>
<svg id="Layer_2" data-name="Layer 2" xmlns="http://www.w3.org/2000/svg" xmlns:xlink="http://www.w3.org/1999/xlink" viewBox="0 0 68.2 68.2">
  <defs>
    <linearGradient id="linear-gradient" x1="33.31" y1="28.34" x2="34.3" y2="28.34" gradientTransform="translate(-3.48 2.45) rotate(-8.17)" gradientUnits="userSpaceOnUse">
      <stop offset="0" stop-color="#fff"/>
      <stop offset=".18" stop-color="#ffe4ff"/>
      <stop offset=".55" stop-color="#ffb2ff"/>
      <stop offset=".84" stop-color="#ff92ff"/>
      <stop offset="1" stop-color="#ff87ff"/>
    </linearGradient>
  </defs>
  <g id="Layer_1-2" data-name="Layer 1">
    <rect x="1.5" y="1.5" width="65.2" height="65.2" rx="32.6" ry="32.6" fill="#c5fff4" stroke="blue" stroke-miterlimit="10" stroke-width="3"/>
    <line x1="58.34" y1="29.71" x2="43.92" y2="31.46" fill="#fcee21" stroke="#fcee21" stroke-miterlimit="10"/>
    <path d="m10.07,38.67c-.45-3.21-1.77-4.22-1.24-6.5.48-2.1,1.45-1.98,2.63-4.7,1.48-3.41.55-4.83,1.94-6.78.72-1.01,2.16-2.28,5.36-2.84-.56.58-1.43,1.61-2.01,3.15-.41,1.09-.53,2.07-.55,2.77.52-.03,1.27-.05,2.18,0,1.4.08,2.9.17,4.39.86,1.82.85,1.52,1.6,2.97,2.11,1.13.4,2.25.14,4.5-.38,2.4-.55,3.6-.83,4.29-1.26.29-.18.79-.52,1.39-.42.87.15,1.34,1.12,1.41,1.27.65,1.35-.11,2.75-.15,2.83-.18.33-.55.86-2.34,1.74-2.61,1.28-3.58,1.02-4.7,2.07-.47.43-1.05,1.18-1.38,2.49.61.13,1.58.3,2.77.28,2.39-.05,3.46-.77,4.15-.14.64.59.55,2-.05,2.82-.23.33-.53.54-1.51.98-1.23.56-2.23.88-3.02,1.13-1.51.48-2.54.8-3.88,1.15-2.24.6-2.58.52-2.88.64,0,0,0,0,0,0,0,0-.09.04-.17.09-1.09.64-1.53,10.71-1.53,10.71-.1,2.29-.57,5.61-2.35,9.63-.74-.36-1.7-.86-2.8-1.53-2.97-1.83-4.93-3.71-5.55-4.33-2.41-2.39-4.07-4.87-5.19-6.94,2.94-3.29,3.43-6.15,3.53-7.54.12-1.73-.19-3.36-.19-3.36Z" fill="#1a1a1a" stroke="blue" stroke-miterlimit="10" stroke-width=".5"/>
    <line x1="47.55" y1="15.73" x2="40.45" y2="26.36" fill="#fcee21" stroke="#fcee21" stroke-miterlimit="10"/>
    <line x1="55" y1="21.29" x2="42.74" y2="28.54" fill="#fcee21" stroke="#fcee21" stroke-miterlimit="10"/>
    <path d="m15.98,24.04c.33-.02.76-.05,1.26-.05.23,0,.84,0,1.7.06.91.07,1.36.1,1.96.23,1.57.33,2.57.95,2.88,1.26.02.02.21.21.47.47.29.3.28.3.35.36.42.39.9.55,1.14.62.36.11.64.14.87.16.12.01.21.01.24.02.31.01.54-.02.67-.03.87-.11,2.12-.39,2.12-.39.52-.12.9-.21,1.01-.23.13-.03.7-.17,1.48-.36.45-.12,1-.26,1.62-.43-.03.06-.06.13-.1.19-.01,0-.03,0-.04.01-2.13.68-3.77,1.03-4.81,1.23-1.77.33-2.23.28-2.58.21-.24-.05-.95-.2-1.68-.73-.49-.35-.46-.5-.92-.89-.78-.67-1.63-.9-2.44-1.12-.38-.1-.78-.18-2.04-.32-.78-.09-1.85-.19-3.16-.27Z" fill="#fff"/>
    <path d="m34.38,25.56c-.13.1-.24.15-.33.19-.39.17-.46.21-.5.17-.02-.02-.03-.05-.02-.13.08-.03.21-.07.36-.12.36-.13.58-.24.6-.21,0,.02-.06.07-.11.11Z" fill="url(#linear-gradient)"/>
  </g>
</svg>