<?xml version="1.0" encoding="UTF-8"?>
<svg id="Layer_2" data-name="Layer 2" xmlns="http://www.w3.org/2000/svg" viewBox="0 0 27.4 33.36">
  <g id="Layer_2-2" data-name="Layer 2">
    <g>
      <path d="m19.27,1.17C12.96-.95,5.97,5.31,3.1,10.78-.63,17.87,0,28.57,5.6,31.67c6.17,3.41,17.52-2.85,20.3-11.9,2.08-6.76-.22-16.44-6.63-18.59Z" fill="#c5fff4" stroke="blue" stroke-miterlimit="10" stroke-width="1.5"/>
      <path d="m14.74,14.95H6c-.24,0-.44.2-.44.44v2.41c0,.24.19.44.44.44h8.73v2.03c0,.34.36.55.66.38l6.22-3.59c.29-.17.29-.59,0-.76l-6.22-3.6c-.29-.17-.66.04-.66.38v1.87Z" fill="#1ac0e9"/>
    </g>
  </g>
</svg>